<svg width="36" height="38" viewBox="0 0 36 38" fill="none" xmlns="http://www.w3.org/2000/svg">
<path d="M36 35.4654C36 35.9958 35.7893 36.5045 35.4142 36.8796C35.0391 37.2547 34.5304 37.4654 34 37.4654H2C1.46957 37.4654 0.96086 37.2547 0.585787 36.8796C0.210714 36.5045 4.81421e-07 35.9958 4.81421e-07 35.4654V14.4454C-0.000210967 14.1406 0.0692343 13.8398 0.203032 13.566C0.33683 13.2922 0.53144 13.0525 0.772 12.8654L16.772 0.421388C17.1231 0.148278 17.5552 0 18 0C18.4448 0 18.8769 0.148278 19.228 0.421388L35.228 12.8654C35.4686 13.0525 35.6632 13.2922 35.797 13.566C35.9308 13.8398 36.0002 14.1406 36 14.4454V35.4654V35.4654ZM16 21.4654V33.4654H20V21.4654H16Z" fill="#E737A0"/>
</svg>
